<svg xmlns="http://www.w3.org/2000/svg" width="600" height="600" viewBox="0 0 592 592" version="1.1">
    <path
        id="logo" d="M 181.929 158.360 C 179.415 159.042, 175.297 160.808, 172.778 162.284 C 170.259 163.760, 166.358 167.058, 164.109 169.613 C 161.861 172.168, 158.779 176.787, 157.261 179.879 C 154.500 185.500, 154.500 185.500, 154.231 284.766 C 153.962 384.032, 153.962 384.032, 150.328 388.766 C 148.328 391.370, 145.546 395.975, 144.144 399 C 142.161 403.278, 141.513 406.499, 141.225 413.500 C 140.928 420.722, 141.266 423.669, 142.932 428.419 C 144.074 431.675, 146.404 436.513, 148.110 439.172 C 149.816 441.830, 153.440 446.008, 156.164 448.457 C 158.887 450.906, 163.532 454.053, 166.485 455.450 C 169.439 456.847, 174.025 458.453, 176.678 459.019 C 179.878 459.702, 224.212 459.956, 308.500 459.774 C 435.500 459.500, 435.500 459.500, 442.282 456.298 C 446.698 454.213, 451.157 451.003, 455.066 447.094 C 458.528 443.632, 462.109 438.818, 463.527 435.722 C 464.879 432.770, 466.438 427.963, 466.992 425.040 C 467.632 421.667, 467.989 379.696, 467.969 310.114 C 467.951 247.508, 467.534 197.389, 466.996 193.245 C 466.472 189.210, 464.848 183.439, 463.338 180.245 C 461.845 177.085, 458.243 172.119, 455.335 169.209 C 452.125 165.996, 447.387 162.657, 443.274 160.709 C 436.500 157.500, 436.500 157.500, 311.500 157.310 C 214.659 157.162, 185.470 157.399, 181.929 158.360 M 295 182.630 C 293.625 182.895, 289.222 183.990, 285.215 185.063 C 281.208 186.136, 274.458 188.761, 270.215 190.897 C 265.972 193.033, 259.604 196.916, 256.065 199.525 C 252.526 202.134, 247.412 206.570, 244.701 209.384 C 241.990 212.198, 237.993 217.107, 235.819 220.294 C 233.644 223.481, 230.100 229.781, 227.943 234.294 C 225.785 238.807, 223.063 246.100, 221.893 250.500 C 220.250 256.682, 219.751 261.568, 219.699 272 C 219.644 283.150, 220.036 286.980, 221.950 294 C 223.225 298.675, 225.727 305.705, 227.510 309.622 C 229.293 313.539, 232.583 319.442, 234.823 322.739 C 237.062 326.036, 241.678 331.518, 245.080 334.920 C 248.482 338.322, 253.794 342.821, 256.883 344.916 C 259.972 347.012, 265.292 350.134, 268.703 351.854 C 272.115 353.574, 278.865 356.198, 283.703 357.684 C 291.633 360.120, 293.979 360.383, 307.500 360.350 C 319.570 360.322, 324.063 359.898, 330.500 358.180 C 334.900 357.005, 343 353.790, 348.500 351.034 C 354 348.279, 361.340 343.694, 364.812 340.846 C 368.283 337.999, 373.598 332.706, 376.622 329.084 C 379.646 325.463, 384.349 318, 387.073 312.500 C 389.798 307, 392.895 299.042, 393.956 294.814 C 395.017 290.587, 396.190 283.367, 396.564 278.768 C 396.963 273.846, 396.756 266.725, 396.061 261.454 C 395.411 256.529, 393.533 248.468, 391.888 243.540 C 390.243 238.612, 387.008 231.227, 384.699 227.129 C 382.389 223.031, 376.953 215.915, 372.618 211.315 C 368.279 206.711, 361.080 200.519, 356.602 197.539 C 352.128 194.562, 345.054 190.760, 340.882 189.089 C 336.709 187.419, 330.642 185.325, 327.398 184.437 C 324.023 183.512, 316.367 182.677, 309.500 182.484 C 302.900 182.298, 296.375 182.364, 295 182.630 M 171.772 184.714 C 170.272 184.942, 168.134 186.285, 167.022 187.699 C 165.910 189.113, 165 191.059, 165 192.024 C 165 192.989, 165.860 194.841, 166.911 196.139 C 168.823 198.500, 168.823 198.500, 197.161 198.742 C 212.748 198.876, 226.850 198.618, 228.500 198.171 C 230.150 197.724, 232.132 196.233, 232.904 194.860 C 233.776 193.308, 234.046 191.321, 233.618 189.615 C 233.151 187.754, 231.822 186.406, 229.497 185.434 C 226.782 184.300, 220.675 184.031, 200.282 184.150 C 186.102 184.232, 173.272 184.486, 171.772 184.714 M 388.270 184.751 C 387.043 184.962, 385.105 186.322, 383.963 187.774 C 382.522 189.606, 382.077 191.191, 382.509 192.957 C 382.852 194.356, 383.793 196.175, 384.602 197 C 385.849 198.272, 390.809 198.491, 417.286 198.444 C 439.992 198.403, 449.113 198.053, 450.750 197.159 C 452.501 196.202, 453 195.046, 453 191.950 C 453 188.538, 452.537 187.685, 449.750 185.967 C 446.678 184.073, 444.965 183.974, 418.500 184.166 C 403.100 184.278, 389.496 184.541, 388.270 184.751 M 266.500 215.155 C 265.400 215.756, 263.938 216.954, 263.250 217.815 C 262.286 219.024, 262 231.435, 262 272.135 C 262 324.888, 262 324.888, 264.250 327.504 C 265.743 329.240, 267.566 330.150, 269.670 330.210 C 271.945 330.274, 278.020 327.387, 291.170 319.991 C 301.252 314.321, 316.475 305.772, 325 300.992 C 333.525 296.213, 344.661 289.956, 349.747 287.089 C 354.833 284.222, 360.345 280.739, 361.997 279.349 C 363.980 277.680, 365 275.898, 365 274.100 C 365 272.602, 364.134 270.447, 363.075 269.310 C 362.016 268.174, 342.730 256.206, 320.217 242.715 C 297.704 229.224, 277.439 217.244, 275.182 216.093 C 272.926 214.942, 270.499 214.014, 269.790 214.030 C 269.080 214.047, 267.600 214.553, 266.500 215.155 M 167.455 228.455 C 166.105 229.805, 165 231.850, 165 233 C 165 234.150, 166.105 236.195, 167.455 237.545 C 169.850 239.941, 170.283 240, 185.455 240 C 199.667 240, 201.172 239.828, 203 238 C 204.100 236.900, 204.993 234.762, 204.985 233.250 C 204.976 231.738, 204.639 230.005, 204.235 229.400 C 203.831 228.795, 202.517 227.782, 201.316 227.150 C 199.959 226.436, 193.596 226, 184.520 226 C 170.340 226, 169.837 226.072, 167.455 228.455 M 413.635 228.073 C 411.860 229.468, 411 231.101, 411 233.073 C 411 234.683, 411.900 236.900, 413 238 C 414.842 239.842, 416.333 240, 431.826 240 C 448.120 240, 448.720 239.927, 450.826 237.686 C 452.022 236.413, 453 234.241, 453 232.860 C 453 231.479, 451.958 229.370, 450.686 228.174 C 448.508 226.128, 447.424 226, 432.320 226 C 417.597 226, 416.052 226.171, 413.635 228.073 M 183.455 268.455 C 181.907 270.002, 181 272.052, 181 274 C 181 275.948, 181.907 277.998, 183.455 279.545 C 185.009 281.100, 187.050 282, 189.020 282 C 190.731 282, 192.940 281.567, 193.929 281.038 C 194.917 280.509, 196.292 278.709, 196.984 277.038 C 197.995 274.597, 197.995 273.403, 196.984 270.962 C 196.292 269.291, 194.917 267.491, 193.929 266.962 C 192.940 266.433, 190.731 266, 189.020 266 C 187.050 266, 185.009 266.900, 183.455 268.455 M 421.080 267.750 C 419.903 268.712, 418.674 271.154, 418.351 273.177 C 417.860 276.240, 418.192 277.282, 420.336 279.427 C 422.145 281.236, 423.976 282, 426.500 282 C 428.979 282, 430.851 281.240, 432.545 279.545 C 434.023 278.068, 435 275.937, 435 274.191 C 435 272.500, 433.979 270.190, 432.548 268.646 C 430.812 266.774, 429.091 266, 426.659 266 C 424.768 266, 422.258 266.788, 421.080 267.750 M 167.455 309.455 C 166.105 310.805, 165 312.850, 165 314 C 165 315.150, 166.105 317.195, 167.455 318.545 C 169.847 320.938, 170.297 321, 185.232 321 C 197.482 321, 201.001 320.688, 202.777 319.443 C 204.342 318.347, 205 316.868, 205 314.443 C 205 312.333, 204.226 310.226, 203 309 C 201.172 307.172, 199.667 307, 185.455 307 C 170.283 307, 169.850 307.059, 167.455 309.455 M 413.174 309.314 C 411.978 310.587, 411 312.837, 411 314.314 C 411 315.792, 411.900 317.900, 413 319 C 414.841 320.841, 416.333 321, 431.777 321 C 445.344 321, 448.980 320.702, 450.777 319.443 C 452.342 318.347, 453 316.868, 453 314.443 C 453 312.333, 452.226 310.226, 451 309 C 449.158 307.158, 447.667 307, 432.174 307 C 415.880 307, 415.280 307.073, 413.174 309.314 M 167.573 346.570 C 166.709 347.433, 165.728 349.237, 165.391 350.577 C 165.017 352.067, 165.410 353.977, 166.402 355.491 C 167.295 356.854, 169.032 358.221, 170.263 358.529 C 171.493 358.838, 185.478 358.958, 201.340 358.795 C 230.179 358.500, 230.179 358.500, 232.090 356.139 C 233.140 354.841, 234 352.703, 234 351.389 C 234 350.075, 233.100 348.100, 232 347 C 230.088 345.088, 228.667 345, 199.571 345 C 173.255 345, 168.931 345.212, 167.573 346.570 M 384.705 346.250 C 383.782 346.938, 382.746 348.933, 382.402 350.684 C 381.896 353.259, 382.267 354.358, 384.343 356.434 C 386.909 359, 386.909 359, 412.205 358.994 C 427.480 358.991, 439.066 358.554, 441.453 357.891 C 443.627 357.288, 446.890 355.310, 448.703 353.497 C 450.742 351.458, 452 349.208, 452 347.600 C 452 345, 452 345, 419.191 345 C 394.505 345, 385.967 345.309, 384.705 346.250 M 448.093 375.405 C 445.738 377.804, 441.266 381.058, 438.156 382.634 C 432.500 385.500, 432.500 385.500, 327.750 385.772 C 223 386.045, 223 386.045, 223 415.440 C 223 444.836, 223 444.836, 230.250 445.192 C 234.238 445.388, 280.925 445.537, 334 445.524 C 430.434 445.500, 430.503 445.499, 435.122 443.363 C 437.665 442.187, 441.637 439.516, 443.950 437.426 C 446.263 435.337, 449.329 431.348, 450.764 428.563 C 453.090 424.049, 453.418 422.090, 453.787 410.500 C 454.201 397.500, 454.201 397.500, 450.350 401.198 C 448.233 403.231, 443.800 406.156, 440.500 407.698 C 434.500 410.500, 434.500 410.500, 342.270 410.770 C 250.884 411.038, 250.022 411.022, 248.020 409.020 C 246.909 407.909, 246 405.930, 246 404.622 C 246 403.315, 246.744 401.627, 247.653 400.872 C 249.017 399.740, 265.057 399.413, 339.403 399 C 423.026 398.536, 429.784 398.372, 433.446 396.719 C 435.617 395.740, 438.910 393.781, 440.765 392.366 C 442.619 390.951, 445.460 387.967, 447.078 385.733 C 448.696 383.500, 450.689 379.420, 451.506 376.666 C 452.324 373.913, 452.854 371.521, 452.684 371.351 C 452.514 371.181, 450.448 373.005, 448.093 375.405 M 173 388.227 C 170.525 389.451, 166.552 392.400, 164.170 394.780 C 161.789 397.160, 159.006 400.996, 157.986 403.304 C 156.966 405.612, 155.827 409.801, 155.455 412.613 C 154.991 416.122, 155.279 419.448, 156.373 423.213 C 157.264 426.275, 159.699 430.864, 161.885 433.600 C 164.040 436.295, 168.210 439.920, 171.151 441.656 C 174.093 443.391, 177.512 445.109, 178.750 445.473 C 181 446.135, 181 446.135, 181 416.067 C 181 388.098, 180.878 386, 179.250 386.001 C 178.287 386.001, 175.475 387.003, 173 388.227 M 193 406.708 C 193 427.416, 193 427.416, 197.451 423.048 C 201.903 418.679, 201.903 418.679, 205.954 422.340 C 208.183 424.353, 210.229 426, 210.503 426 C 210.776 426, 211 417, 211 406 C 211 386, 211 386, 202 386 C 193 386, 193 386, 193 406.708 M 229.655 420.829 C 228.745 421.835, 228 423.430, 228 424.374 C 228 425.318, 229.105 427.195, 230.455 428.545 C 232.872 430.963, 233.173 431, 250.232 431 C 264.292 431, 267.974 430.707, 269.777 429.443 C 271.171 428.468, 272 426.846, 272 425.098 C 272 423.565, 271.177 421.565, 270.171 420.655 C 268.608 419.240, 265.653 419, 249.826 419 C 233.158 419, 231.145 419.183, 229.655 420.829 M 319.333 429.615 C 317.805 431.947, 317.777 432.512, 319.075 434.824 C 319.875 436.250, 321.648 437.728, 323.015 438.109 C 324.382 438.489, 346.650 438.839, 372.500 438.886 C 408.410 438.950, 420.090 438.674, 422 437.712 C 423.799 436.807, 424.592 435.492, 424.829 433.021 C 425.059 430.615, 424.628 429.201, 423.388 428.294 C 421.995 427.276, 410.897 427, 371.332 427 C 321.046 427, 321.046 427, 319.333 429.615 M 193.590 439.383 C 186.679 445.687, 186.679 445.687, 201.332 445.594 C 210.609 445.534, 215.866 445.133, 215.660 444.500 C 215.482 443.950, 212.555 441.137, 209.157 438.250 C 205.759 435.363, 202.421 433.018, 201.739 433.039 C 201.058 433.061, 197.390 435.916, 193.590 439.383"
        stroke="none" fill="#151d2c" fill-rule="evenodd" />
    <path
        d="M 0 296.002 C 0 592.003, 0 592.003, 296.250 591.752 C 592.500 591.500, 592.500 591.500, 592.752 295.750 C 593.003 0, 593.003 0, 296.502 0 C 0 0, 0 0, 0 296.002 M 0.493 296.500 C 0.493 459.300, 0.609 525.751, 0.750 444.169 C 0.891 362.587, 0.891 229.387, 0.750 148.169 C 0.609 66.951, 0.493 133.700, 0.493 296.500 M 181.929 158.360 C 179.415 159.042, 175.297 160.808, 172.778 162.284 C 170.259 163.760, 166.358 167.058, 164.109 169.613 C 161.861 172.168, 158.779 176.787, 157.261 179.879 C 154.500 185.500, 154.500 185.500, 154.231 284.766 C 153.962 384.032, 153.962 384.032, 150.328 388.766 C 148.328 391.370, 145.546 395.975, 144.144 399 C 142.161 403.278, 141.513 406.499, 141.225 413.500 C 140.928 420.722, 141.266 423.669, 142.932 428.419 C 144.074 431.675, 146.404 436.513, 148.110 439.172 C 149.816 441.830, 153.440 446.008, 156.164 448.457 C 158.887 450.906, 163.532 454.053, 166.485 455.450 C 169.439 456.847, 174.025 458.453, 176.678 459.019 C 179.878 459.702, 224.212 459.956, 308.500 459.774 C 435.500 459.500, 435.500 459.500, 442.282 456.298 C 446.698 454.213, 451.157 451.003, 455.066 447.094 C 458.528 443.632, 462.109 438.818, 463.527 435.722 C 464.879 432.770, 466.438 427.963, 466.992 425.040 C 467.632 421.667, 467.989 379.696, 467.969 310.114 C 467.951 247.508, 467.534 197.389, 466.996 193.245 C 466.472 189.210, 464.848 183.439, 463.338 180.245 C 461.845 177.085, 458.243 172.119, 455.335 169.209 C 452.125 165.996, 447.387 162.657, 443.274 160.709 C 436.500 157.500, 436.500 157.500, 311.500 157.310 C 214.659 157.162, 185.470 157.399, 181.929 158.360 M 295 182.630 C 293.625 182.895, 289.222 183.990, 285.215 185.063 C 281.208 186.136, 274.458 188.761, 270.215 190.897 C 265.972 193.033, 259.604 196.916, 256.065 199.525 C 252.526 202.134, 247.412 206.570, 244.701 209.384 C 241.990 212.198, 237.993 217.107, 235.819 220.294 C 233.644 223.481, 230.100 229.781, 227.943 234.294 C 225.785 238.807, 223.063 246.100, 221.893 250.500 C 220.250 256.682, 219.751 261.568, 219.699 272 C 219.644 283.150, 220.036 286.980, 221.950 294 C 223.225 298.675, 225.727 305.705, 227.510 309.622 C 229.293 313.539, 232.583 319.442, 234.823 322.739 C 237.062 326.036, 241.678 331.518, 245.080 334.920 C 248.482 338.322, 253.794 342.821, 256.883 344.916 C 259.972 347.012, 265.292 350.134, 268.703 351.854 C 272.115 353.574, 278.865 356.198, 283.703 357.684 C 291.633 360.120, 293.979 360.383, 307.500 360.350 C 319.570 360.322, 324.063 359.898, 330.500 358.180 C 334.900 357.005, 343 353.790, 348.500 351.034 C 354 348.279, 361.340 343.694, 364.812 340.846 C 368.283 337.999, 373.598 332.706, 376.622 329.084 C 379.646 325.463, 384.349 318, 387.073 312.500 C 389.798 307, 392.895 299.042, 393.956 294.814 C 395.017 290.587, 396.190 283.367, 396.564 278.768 C 396.963 273.846, 396.756 266.725, 396.061 261.454 C 395.411 256.529, 393.533 248.468, 391.888 243.540 C 390.243 238.612, 387.008 231.227, 384.699 227.129 C 382.389 223.031, 376.953 215.915, 372.618 211.315 C 368.279 206.711, 361.080 200.519, 356.602 197.539 C 352.128 194.562, 345.054 190.760, 340.882 189.089 C 336.709 187.419, 330.642 185.325, 327.398 184.437 C 324.023 183.512, 316.367 182.677, 309.500 182.484 C 302.900 182.298, 296.375 182.364, 295 182.630 M 171.772 184.714 C 170.272 184.942, 168.134 186.285, 167.022 187.699 C 165.910 189.113, 165 191.059, 165 192.024 C 165 192.989, 165.860 194.841, 166.911 196.139 C 168.823 198.500, 168.823 198.500, 197.161 198.742 C 212.748 198.876, 226.850 198.618, 228.500 198.171 C 230.150 197.724, 232.132 196.233, 232.904 194.860 C 233.776 193.308, 234.046 191.321, 233.618 189.615 C 233.151 187.754, 231.822 186.406, 229.497 185.434 C 226.782 184.300, 220.675 184.031, 200.282 184.150 C 186.102 184.232, 173.272 184.486, 171.772 184.714 M 388.270 184.751 C 387.043 184.962, 385.105 186.322, 383.963 187.774 C 382.522 189.606, 382.077 191.191, 382.509 192.957 C 382.852 194.356, 383.793 196.175, 384.602 197 C 385.849 198.272, 390.809 198.491, 417.286 198.444 C 439.992 198.403, 449.113 198.053, 450.750 197.159 C 452.501 196.202, 453 195.046, 453 191.950 C 453 188.538, 452.537 187.685, 449.750 185.967 C 446.678 184.073, 444.965 183.974, 418.500 184.166 C 403.100 184.278, 389.496 184.541, 388.270 184.751 M 266.500 215.155 C 265.400 215.756, 263.938 216.954, 263.250 217.815 C 262.286 219.024, 262 231.435, 262 272.135 C 262 324.888, 262 324.888, 264.250 327.504 C 265.743 329.240, 267.566 330.150, 269.670 330.210 C 271.945 330.274, 278.020 327.387, 291.170 319.991 C 301.252 314.321, 316.475 305.772, 325 300.992 C 333.525 296.213, 344.661 289.956, 349.747 287.089 C 354.833 284.222, 360.345 280.739, 361.997 279.349 C 363.980 277.680, 365 275.898, 365 274.100 C 365 272.602, 364.134 270.447, 363.075 269.310 C 362.016 268.174, 342.730 256.206, 320.217 242.715 C 297.704 229.224, 277.439 217.244, 275.182 216.093 C 272.926 214.942, 270.499 214.014, 269.790 214.030 C 269.080 214.047, 267.600 214.553, 266.500 215.155 M 167.455 228.455 C 166.105 229.805, 165 231.850, 165 233 C 165 234.150, 166.105 236.195, 167.455 237.545 C 169.850 239.941, 170.283 240, 185.455 240 C 199.667 240, 201.172 239.828, 203 238 C 204.100 236.900, 204.993 234.762, 204.985 233.250 C 204.976 231.738, 204.639 230.005, 204.235 229.400 C 203.831 228.795, 202.517 227.782, 201.316 227.150 C 199.959 226.436, 193.596 226, 184.520 226 C 170.340 226, 169.837 226.072, 167.455 228.455 M 413.635 228.073 C 411.860 229.468, 411 231.101, 411 233.073 C 411 234.683, 411.900 236.900, 413 238 C 414.842 239.842, 416.333 240, 431.826 240 C 448.120 240, 448.720 239.927, 450.826 237.686 C 452.022 236.413, 453 234.241, 453 232.860 C 453 231.479, 451.958 229.370, 450.686 228.174 C 448.508 226.128, 447.424 226, 432.320 226 C 417.597 226, 416.052 226.171, 413.635 228.073 M 183.455 268.455 C 181.907 270.002, 181 272.052, 181 274 C 181 275.948, 181.907 277.998, 183.455 279.545 C 185.009 281.100, 187.050 282, 189.020 282 C 190.731 282, 192.940 281.567, 193.929 281.038 C 194.917 280.509, 196.292 278.709, 196.984 277.038 C 197.995 274.597, 197.995 273.403, 196.984 270.962 C 196.292 269.291, 194.917 267.491, 193.929 266.962 C 192.940 266.433, 190.731 266, 189.020 266 C 187.050 266, 185.009 266.900, 183.455 268.455 M 421.080 267.750 C 419.903 268.712, 418.674 271.154, 418.351 273.177 C 417.860 276.240, 418.192 277.282, 420.336 279.427 C 422.145 281.236, 423.976 282, 426.500 282 C 428.979 282, 430.851 281.240, 432.545 279.545 C 434.023 278.068, 435 275.937, 435 274.191 C 435 272.500, 433.979 270.190, 432.548 268.646 C 430.812 266.774, 429.091 266, 426.659 266 C 424.768 266, 422.258 266.788, 421.080 267.750 M 167.455 309.455 C 166.105 310.805, 165 312.850, 165 314 C 165 315.150, 166.105 317.195, 167.455 318.545 C 169.847 320.938, 170.297 321, 185.232 321 C 197.482 321, 201.001 320.688, 202.777 319.443 C 204.342 318.347, 205 316.868, 205 314.443 C 205 312.333, 204.226 310.226, 203 309 C 201.172 307.172, 199.667 307, 185.455 307 C 170.283 307, 169.850 307.059, 167.455 309.455 M 413.174 309.314 C 411.978 310.587, 411 312.837, 411 314.314 C 411 315.792, 411.900 317.900, 413 319 C 414.841 320.841, 416.333 321, 431.777 321 C 445.344 321, 448.980 320.702, 450.777 319.443 C 452.342 318.347, 453 316.868, 453 314.443 C 453 312.333, 452.226 310.226, 451 309 C 449.158 307.158, 447.667 307, 432.174 307 C 415.880 307, 415.280 307.073, 413.174 309.314 M 167.573 346.570 C 166.709 347.433, 165.728 349.237, 165.391 350.577 C 165.017 352.067, 165.410 353.977, 166.402 355.491 C 167.295 356.854, 169.032 358.221, 170.263 358.529 C 171.493 358.838, 185.478 358.958, 201.340 358.795 C 230.179 358.500, 230.179 358.500, 232.090 356.139 C 233.140 354.841, 234 352.703, 234 351.389 C 234 350.075, 233.100 348.100, 232 347 C 230.088 345.088, 228.667 345, 199.571 345 C 173.255 345, 168.931 345.212, 167.573 346.570 M 384.705 346.250 C 383.782 346.938, 382.746 348.933, 382.402 350.684 C 381.896 353.259, 382.267 354.358, 384.343 356.434 C 386.909 359, 386.909 359, 412.205 358.994 C 427.480 358.991, 439.066 358.554, 441.453 357.891 C 443.627 357.288, 446.890 355.310, 448.703 353.497 C 450.742 351.458, 452 349.208, 452 347.600 C 452 345, 452 345, 419.191 345 C 394.505 345, 385.967 345.309, 384.705 346.250 M 448.093 375.405 C 445.738 377.804, 441.266 381.058, 438.156 382.634 C 432.500 385.500, 432.500 385.500, 327.750 385.772 C 223 386.045, 223 386.045, 223 415.440 C 223 444.836, 223 444.836, 230.250 445.192 C 234.238 445.388, 280.925 445.537, 334 445.524 C 430.434 445.500, 430.503 445.499, 435.122 443.363 C 437.665 442.187, 441.637 439.516, 443.950 437.426 C 446.263 435.337, 449.329 431.348, 450.764 428.563 C 453.090 424.049, 453.418 422.090, 453.787 410.500 C 454.201 397.500, 454.201 397.500, 450.350 401.198 C 448.233 403.231, 443.800 406.156, 440.500 407.698 C 434.500 410.500, 434.500 410.500, 342.270 410.770 C 250.884 411.038, 250.022 411.022, 248.020 409.020 C 246.909 407.909, 246 405.930, 246 404.622 C 246 403.315, 246.744 401.627, 247.653 400.872 C 249.017 399.740, 265.057 399.413, 339.403 399 C 423.026 398.536, 429.784 398.372, 433.446 396.719 C 435.617 395.740, 438.910 393.781, 440.765 392.366 C 442.619 390.951, 445.460 387.967, 447.078 385.733 C 448.696 383.500, 450.689 379.420, 451.506 376.666 C 452.324 373.913, 452.854 371.521, 452.684 371.351 C 452.514 371.181, 450.448 373.005, 448.093 375.405 M 173 388.227 C 170.525 389.451, 166.552 392.400, 164.170 394.780 C 161.789 397.160, 159.006 400.996, 157.986 403.304 C 156.966 405.612, 155.827 409.801, 155.455 412.613 C 154.991 416.122, 155.279 419.448, 156.373 423.213 C 157.264 426.275, 159.699 430.864, 161.885 433.600 C 164.040 436.295, 168.210 439.920, 171.151 441.656 C 174.093 443.391, 177.512 445.109, 178.750 445.473 C 181 446.135, 181 446.135, 181 416.067 C 181 388.098, 180.878 386, 179.250 386.001 C 178.287 386.001, 175.475 387.003, 173 388.227 M 193 406.708 C 193 427.416, 193 427.416, 197.451 423.048 C 201.903 418.679, 201.903 418.679, 205.954 422.340 C 208.183 424.353, 210.229 426, 210.503 426 C 210.776 426, 211 417, 211 406 C 211 386, 211 386, 202 386 C 193 386, 193 386, 193 406.708 M 229.655 420.829 C 228.745 421.835, 228 423.430, 228 424.374 C 228 425.318, 229.105 427.195, 230.455 428.545 C 232.872 430.963, 233.173 431, 250.232 431 C 264.292 431, 267.974 430.707, 269.777 429.443 C 271.171 428.468, 272 426.846, 272 425.098 C 272 423.565, 271.177 421.565, 270.171 420.655 C 268.608 419.240, 265.653 419, 249.826 419 C 233.158 419, 231.145 419.183, 229.655 420.829 M 319.333 429.615 C 317.805 431.947, 317.777 432.512, 319.075 434.824 C 319.875 436.250, 321.648 437.728, 323.015 438.109 C 324.382 438.489, 346.650 438.839, 372.500 438.886 C 408.410 438.950, 420.090 438.674, 422 437.712 C 423.799 436.807, 424.592 435.492, 424.829 433.021 C 425.059 430.615, 424.628 429.201, 423.388 428.294 C 421.995 427.276, 410.897 427, 371.332 427 C 321.046 427, 321.046 427, 319.333 429.615 M 193.590 439.383 C 186.679 445.687, 186.679 445.687, 201.332 445.594 C 210.609 445.534, 215.866 445.133, 215.660 444.500 C 215.482 443.950, 212.555 441.137, 209.157 438.250 C 205.759 435.363, 202.421 433.018, 201.739 433.039 C 201.058 433.061, 197.390 435.916, 193.590 439.383"
        stroke="none" fill="#fbf4e7" fill-rule="evenodd" />
</svg>
